<svg xmlns="http://www.w3.org/2000/svg" version="1.1" xmlns:xlink="http://www.w3.org/1999/xlink" xmlns:svgjs="http://svgjs.dev/svgjs" width="2000" height="2457" viewBox="0 0 2000 2457"><g transform="matrix(1,0,0,1,-0.848760132880102,0.9976232209955924)"><svg viewBox="0 0 201 247" data-background-color="#000000" preserveAspectRatio="xMidYMid meet" height="2457" width="2000" xmlns="http://www.w3.org/2000/svg" xmlns:xlink="http://www.w3.org/1999/xlink"><g id="tight-bounds" transform="matrix(1,0,0,1,0.08562772727273682,-0.10007915888590446)"><svg viewBox="0 0 200.82874454545453 247.2" height="247.2" width="200.82874454545453"><rect width="200.8290718793728" height="247.20036932395953" fill="url(#f8c713ca-806e-4501-a90b-f8140e14f127)" mask="url(#f17a5e74-5c43-4013-9c57-5f9faa952174)" data-fill-palette-color="tertiary"></rect><g><svg viewBox="0 0 200.82874454545453 247.2" height="247.2" width="200.82874454545453"><g><svg viewBox="0 0 200.82874454545453 247.2" height="247.2" width="200.82874454545453"><g id="textblocktransform"><svg viewBox="0 0 200.82874454545453 247.2" height="247.2" width="200.82874454545453" id="textblock"><g><svg viewBox="0 0 200.82874454545453 247.2" height="247.2" width="200.82874454545453"><path d="M200.359 53.02C199.414 27.36 196.724 20.227 196.724 20.227 188.462-6.202 178.152-0.506 168.89 3.292 152.538 3.446 136.252 9.091 119.937 12.119 85.693 12.581 51.156 4.986 17.082 23.717 13.882 29.464-3.321 24.846 0.569 56.304 1.589 69.39 5.309 83.913 5.196 95.922 5.705 98.026 6.414 93.202 6.716 96.23 7.773 104.39 9.501 100.541 10.917 105.365 8.944 118.246 10.36 128.971 11.71 140.21 9.331 143.135 6.281 141.749 4.912 151.449 4.771 158.479 4.006 157.145 3.166 156.837 2.552 156.632 1.315 157.402 1.523 159.608 2.231 167.152-0.809 171.514 1.098 178.904-0.214 186.91 2.004 193.838 1.702 202.511 1.665 204.255 1.872 205.744 2.203 206.154 3.666 208.361 1.532 212.672 1.759 217.342 16.771 249.262 33.057 227.195 48.437 241.872 52.431 231.608 49.429 245.516 51.024 243.36 52.27 240.846 53.177 251.263 54.584 245.362 54.801 243.668 54.47 239.665 55.244 240.435 55.65 240.846 56.009 240.743 56.066 238.382 56.151 234.841 55.405 237.048 55.207 235.201 57.35 225.861 56.821 248.081 58.832 247.158 58.738 244.438 58.152 240.538 59.351 241.051 60.541 237.151 60.579 233.918 61.636 242.693 61.674 244.592 61.863 245.926 62.165 246.85 65.469 237.305 68.755 250.237 72.22 245.926 74.344 241.205 76.384 248.492 78.536 246.696 79.292 245.259 80.056 242.693 80.783 247.004 89.687 247.928 99.175 244.079 107.616 247.158 130.171 241.41 154.275 249.518 178.058 241.923 183.666 238.998 189.492 234.841 194.958 231.506 194.958 231.506 199.386 222.371 199.386 181.316S200.33 145.393 200.472 112.703C200.613 80.013 201.274 78.679 200.33 53.02Z" opacity="1" fill="url(#f8c713ca-806e-4501-a90b-f8140e14f127)" data-fill-palette-color="tertiary"></path><g transform="matrix(1,0,0,1,55.768319999999996,26.230666666666668)"><svg width="89.29210454545454" viewBox="1.22 -42.97 19.700000000000003 42.97" height="194.73866666666666" data-palette-color="#000000"><path d="M6.03 0L1.22 0 7.74-42.97 13.82-42.97 20.92 0 16.16 0 14.94-8.2 7.15-8.2 6.03 0ZM10.84-35.01L7.71-12.3 14.31-12.3 10.91-35.01 10.84-35.01Z" opacity="1" transform="matrix(1,0,0,1,0,0)" fill="#000000" class="wordmark-text-0" data-fill-palette-color="quaternary" id="text-0"></path></svg></g></svg></g></svg></g></svg></g><g></g></svg></g><defs></defs><mask id="f17a5e74-5c43-4013-9c57-5f9faa952174"><g id="SvgjsG4582"><svg viewBox="0 0 200.82874454545453 247.2" height="247.2" width="200.82874454545453"><g><svg viewBox="0 0 200.82874454545453 247.2" height="247.2" width="200.82874454545453"><g><svg viewBox="0 0 200.82874454545453 247.2" height="247.2" width="200.82874454545453"><g id="SvgjsG4581"><svg viewBox="0 0 200.82874454545453 247.2" height="247.2" width="200.82874454545453" id="SvgjsSvg4580"><g><svg viewBox="0 0 200.82874454545453 247.2" height="247.2" width="200.82874454545453"><path d="M200.359 53.02C199.414 27.36 196.724 20.227 196.724 20.227 188.462-6.202 178.152-0.506 168.89 3.292 152.538 3.446 136.252 9.091 119.937 12.119 85.693 12.581 51.156 4.986 17.082 23.717 13.882 29.464-3.321 24.846 0.569 56.304 1.589 69.39 5.309 83.913 5.196 95.922 5.705 98.026 6.414 93.202 6.716 96.23 7.773 104.39 9.501 100.541 10.917 105.365 8.944 118.246 10.36 128.971 11.71 140.21 9.331 143.135 6.281 141.749 4.912 151.449 4.771 158.479 4.006 157.145 3.166 156.837 2.552 156.632 1.315 157.402 1.523 159.608 2.231 167.152-0.809 171.514 1.098 178.904-0.214 186.91 2.004 193.838 1.702 202.511 1.665 204.255 1.872 205.744 2.203 206.154 3.666 208.361 1.532 212.672 1.759 217.342 16.771 249.262 33.057 227.195 48.437 241.872 52.431 231.608 49.429 245.516 51.024 243.36 52.27 240.846 53.177 251.263 54.584 245.362 54.801 243.668 54.47 239.665 55.244 240.435 55.65 240.846 56.009 240.743 56.066 238.382 56.151 234.841 55.405 237.048 55.207 235.201 57.35 225.861 56.821 248.081 58.832 247.158 58.738 244.438 58.152 240.538 59.351 241.051 60.541 237.151 60.579 233.918 61.636 242.693 61.674 244.592 61.863 245.926 62.165 246.85 65.469 237.305 68.755 250.237 72.22 245.926 74.344 241.205 76.384 248.492 78.536 246.696 79.292 245.259 80.056 242.693 80.783 247.004 89.687 247.928 99.175 244.079 107.616 247.158 130.171 241.41 154.275 249.518 178.058 241.923 183.666 238.998 189.492 234.841 194.958 231.506 194.958 231.506 199.386 222.371 199.386 181.316S200.33 145.393 200.472 112.703C200.613 80.013 201.274 78.679 200.33 53.02Z" opacity="1" fill="white"></path><g transform="matrix(1,0,0,1,55.768319999999996,26.230666666666668)"><svg width="89.29210454545454" viewBox="1.22 -42.97 19.700000000000003 42.97" height="194.73866666666666" data-palette-color="#000000"><path d="M6.03 0L1.22 0 7.74-42.97 13.82-42.97 20.92 0 16.16 0 14.94-8.2 7.15-8.2 6.03 0ZM10.84-35.01L7.71-12.3 14.31-12.3 10.91-35.01 10.84-35.01Z" opacity="1" transform="matrix(1,0,0,1,0,0)" fill="black" class="wordmark-text-0" id="SvgjsPath4579"></path></svg></g></svg></g></svg></g></svg></g><g></g></svg></g><defs><mask></mask></defs></svg><rect width="200.82874454545453" height="247.2" fill="black" stroke="none" visibility="hidden"></rect></g></mask><linearGradient x1="0" x2="1" y1="0.578" y2="0.595" id="f8c713ca-806e-4501-a90b-f8140e14f127"><stop stop-color="#6ee2f5" offset="0"></stop><stop stop-color="#6454f0" offset="1"></stop></linearGradient></svg><rect width="200.82874454545453" height="247.2" fill="none" stroke="none" visibility="hidden"></rect></g></svg></g></svg>